 http://www.imdb.com/title/tt1173494/

User Rating:7.3/10 - 444 votes

Drama

Director:Andy DeEmmony

Cast:Josef Altin/Ashley Artus/Dominic Cooper/Lorcan Cranitch, and others.

Plot:
In the Jewish tradition of arguing with God, Jewish prisoners in Auschwitz decide to put God on Trial.

Info:

Covers included.

General
Complete name                    : God on Trial-AC3-5,1-DVDRip[Eng]2008.avi
Format                           : AVI
Format/Info                      : Audio Video Interleave
File size                        : 1.21 GiB
Duration                         : 1h 25mn
Overall bit rate                 : 2 032 Kbps
Writing application              : VirtualDubMod 1.5.4.1 (build 2178/release)
Writing library                  : VirtualDubMod build 2178/release

Video
ID                               : 0
Format                           : MPEG-4 Visual
Format profile                   : Simple@L3
Format settings, BVOP            : No
Format settings, QPel            : No
Format settings, GMC             : No warppoints
Format settings, Matrix          : Default (H.263)
Codec ID                         : XVID
Codec ID/Hint                    : XviD
Duration                         : 1h 25mn
Bit rate                         : 1 574 Kbps
Width                            : 640 pixels
Height                           : 352 pixels
Display aspect ratio             : 16:9
Frame rate                       : 25.000 fps
Resolution                       : 24 bits
Colorimetry                      : 4:2:0
Scan type                        : Progressive
Bits/(Pixel*Frame)               : 0.280
Stream size                      : 961 MiB (77%)
Writing library                  : XviD 1.1.2 (UTC 2006-11-01)

Audio
ID                               : 1
Format                           : AC-3
Format/Info                      : Audio Coding 3
Codec ID                         : 2000
Duration                         : 1h 25mn
Bit rate mode                    : Constant
Bit rate                         : 448 Kbps
Channel(s)                       : 6 channels
Channel positions                : Front: L C R, Surround: L R, LFE
Sampling rate                    : 48.0 KHz
Stream size                      : 274 MiB (22%)
Alignment                        : Split accross interleaves
Interleave, duration             : 40 ms (1.00 video frame)
Interleave, preload duration     : 500 ms